<svg width="101" height="101" viewBox="0 0 101 101" fill="none" xmlns="http://www.w3.org/2000/svg">
<rect x="0.393926" y="0.250361" width="99.5" height="99.5" rx="49.75" transform="rotate(0.0827174 0.393926 0.250361)" fill="url(#paint0_linear)" stroke="#A3A3A3" stroke-width="0.5"/>
<path d="M29.4312 64.0833C29.4312 65.6942 30.737 67 32.3478 67L68.6524 67C70.2632 67 71.5691 65.6942 71.5691 64.0833V64.0833C71.5691 62.4725 70.2632 61.1667 68.6524 61.1667L32.3478 61.1667C30.737 61.1667 29.4312 62.4725 29.4312 64.0833V64.0833ZM29.4312 49.5C29.4312 51.1108 30.737 52.4167 32.3478 52.4167L68.6524 52.4167C70.2632 52.4167 71.5691 51.1108 71.5691 49.5V49.5C71.5691 47.8892 70.2632 46.5833 68.6524 46.5833L32.3478 46.5833C30.737 46.5833 29.4312 47.8892 29.4312 49.5V49.5ZM32.3478 32C30.737 32 29.4312 33.3058 29.4312 34.9167V34.9167C29.4312 36.5275 30.737 37.8333 32.3478 37.8333L68.6524 37.8333C70.2632 37.8333 71.5691 36.5275 71.5691 34.9167V34.9167C71.5691 33.3058 70.2632 32 68.6524 32L32.3478 32Z" fill="white"/>
<defs>
<linearGradient id="paint0_linear" x1="0.0721846" y1="50.0002" x2="113.072" y2="49.837" gradientUnits="userSpaceOnUse">
<stop stop-color="#FF3A3A"/>
<stop offset="1" stop-color="#FB6122"/>
</linearGradient>
</defs>
</svg>
